<?xml version="1.0" encoding="UTF-8"?>
<!DOCTYPE svg PUBLIC "-//W3C//DTD SVG 1.1//EN" "http://www.w3.org/Graphics/SVG/1.1/DTD/svg11.dtd">
<svg xmlns="http://www.w3.org/2000/svg" version="1.1" width="860px" height="901px" style="shape-rendering:geometricPrecision; text-rendering:geometricPrecision; image-rendering:optimizeQuality; fill-rule:evenodd; clip-rule:evenodd" xmlns:xlink="http://www.w3.org/1999/xlink">
<g><path style="opacity:1" fill="#f6f6f6" d="M -0.5,-0.5 C 286.167,-0.5 572.833,-0.5 859.5,-0.5C 859.5,299.833 859.5,600.167 859.5,900.5C 572.833,900.5 286.167,900.5 -0.5,900.5C -0.5,600.167 -0.5,299.833 -0.5,-0.5 Z"/></g>
<g><path style="opacity:1" fill="#a6a6a6" d="M 158.5,40.5 C 164.319,39.3475 170.319,39.1808 176.5,40C 177.056,40.3826 177.389,40.8826 177.5,41.5C 171.203,40.6803 164.869,40.347 158.5,40.5 Z"/></g>
<g><path style="opacity:1" fill="#060606" d="M 158.5,40.5 C 164.869,40.347 171.203,40.6803 177.5,41.5C 183.922,42.364 189.922,44.5306 195.5,48C 210.296,59.1287 223.462,71.962 235,86.5C 235.349,93.8184 231.849,97.6518 224.5,98C 214.231,89.7343 204.565,80.7343 195.5,71C 189.196,64.692 181.863,60.0253 173.5,57C 166.314,55.9451 159.314,56.6118 152.5,59C 147.833,62.3333 143.167,65.6667 138.5,69C 126.5,80.3333 114.5,91.6667 102.5,103C 87.4163,118.754 72.2496,134.587 57,150.5C 42.4204,166.546 41.7537,183.213 55,200.5C 62.6667,208.167 70.3333,215.833 78,223.5C 98.7121,203.279 119.545,183.112 140.5,163C 143.156,161.09 145.989,159.59 149,158.5C 153.082,158.919 155.582,161.086 156.5,165C 155.673,168.488 154.173,171.654 152,174.5C 143.333,183.833 134.667,193.167 126,202.5C 114.529,212.97 103.363,223.803 92.5,235C 87.8862,239.619 82.7196,243.452 77,246.5C 59.5677,233.066 44.9011,217.066 33,198.5C 28.4152,183.821 28.4152,169.154 33,154.5C 35.0836,150.664 37.417,146.997 40,143.5C 70.5329,108.634 103.366,76.1335 138.5,46C 144.873,43.0416 151.539,41.2082 158.5,40.5 Z"/></g>
<g><path style="opacity:1" fill="#050505" d="M 244.5,101.5 C 245.873,101.343 247.207,101.51 248.5,102C 278.545,128.04 307.378,155.54 335,184.5C 340.734,190.398 345.901,196.731 350.5,203.5C 301.379,256.788 250.379,308.288 197.5,358C 195.933,359.076 194.266,359.909 192.5,360.5C 187.434,357.61 182.768,354.11 178.5,350C 149.941,322.109 122.108,293.609 95,264.5C 93.2669,262.277 91.7669,259.944 90.5,257.5C 90.7189,256.062 91.2189,254.729 92,253.5C 140.703,200.63 191.536,149.964 244.5,101.5 Z"/></g>
<g><path style="opacity:1" fill="#f3f3f3" d="M 245.5,122.5 C 252.243,127.737 258.577,133.571 264.5,140C 219.833,184.667 175.167,229.333 130.5,274C 129.833,274.667 129.167,274.667 128.5,274C 122.434,268.28 116.934,262.447 112,256.5C 156.674,211.992 201.174,167.326 245.5,122.5 Z"/></g>
<g><path style="opacity:1" fill="#f4f4f4" d="M 275.5,153.5 C 277.255,154.072 278.922,154.906 280.5,156C 286,161.5 291.5,167 297,172.5C 297.667,173.167 297.667,173.833 297,174.5C 252.333,219.167 207.667,263.833 163,308.5C 155.833,301.333 148.667,294.167 141.5,287C 186.062,242.271 230.728,197.771 275.5,153.5 Z"/></g>
<g><path style="opacity:1" fill="#f2f2f2" d="M 309.5,187.5 C 310.552,187.351 311.552,187.517 312.5,188C 317.925,192.753 322.592,198.086 326.5,204C 325.683,205.49 324.85,206.99 324,208.5C 281.833,252 239,294.833 195.5,337C 193.212,337.418 191.212,336.751 189.5,335C 185.167,330.667 180.833,326.333 176.5,322C 220.402,277.262 264.735,232.429 309.5,187.5 Z"/></g>
<g><path style="opacity:1" fill="#060606" d="M 803.5,727.5 C 803.41,730.152 804.076,732.485 805.5,734.5C 806.371,737.112 807.037,739.779 807.5,742.5C 807.41,745.152 808.076,747.485 809.5,749.5C 812.616,758.298 814.95,767.298 816.5,776.5C 816.41,779.152 817.076,781.485 818.5,783.5C 821.469,793.011 823.802,802.677 825.5,812.5C 825.41,815.152 826.076,817.485 827.5,819.5C 828.358,823.624 829.024,827.791 829.5,832C 830.078,837.033 827.912,839.866 823,840.5C 819.429,839.968 815.929,839.301 812.5,838.5C 810.485,837.076 808.152,836.41 805.5,836.5C 741.515,820.738 677.849,803.905 614.5,786C 479.224,651.391 344.724,516.225 211,380.5C 209.152,377.989 207.319,375.489 205.5,373C 255.123,318.376 307.123,266.043 361.5,216C 362.167,215.333 362.833,215.333 363.5,216C 501.693,350.526 638.193,486.693 773,624.5C 774.29,626.792 775.957,628.792 778,630.5C 786.614,662.835 795.114,695.169 803.5,727.5 Z"/></g>
<g><path style="opacity:1" fill="#f5f5f5" d="M 360.5,237.5 C 492.431,367.764 623.764,498.764 754.5,630.5C 709.877,674.787 664.877,719.453 619.5,764.5C 488.347,633.847 357.347,503.014 226.5,372C 271.368,327.299 316.035,282.465 360.5,237.5 Z"/></g>
<g><path style="opacity:1" fill="#050505" d="M 341.5,273.5 C 343.527,273.338 345.527,273.505 347.5,274C 451.917,375.416 555.417,477.916 658,581.5C 677.699,601.531 697.032,621.864 716,642.5C 720.167,648.33 718.834,652.33 712,654.5C 710.107,653.804 708.274,652.97 706.5,652C 696.202,643.37 686.202,634.37 676.5,625C 562.025,512.525 448.859,398.692 337,283.5C 336.333,281.833 336.333,280.167 337,278.5C 338.707,276.963 340.207,275.296 341.5,273.5 Z"/></g>
<g><path style="opacity:1" fill="#060606" d="M 267.5,347.5 C 269.527,347.338 271.527,347.505 273.5,348C 397.333,467.833 519.167,589.667 639,713.5C 641.351,716.205 643.184,719.205 644.5,722.5C 642.395,727.887 638.728,729.387 633.5,727C 623.202,718.37 613.202,709.37 603.5,700C 488.665,587.165 375.165,472.998 263,357.5C 262.333,355.833 262.333,354.167 263,352.5C 264.366,350.638 265.866,348.972 267.5,347.5 Z"/></g>
<g><path style="opacity:1" fill="#f5f5f5" d="M 781.5,716.5 C 781.41,719.152 782.076,721.485 783.5,723.5C 783.628,725.655 783.128,727.655 782,729.5C 765.506,747.994 748.34,765.827 730.5,783C 726.452,786.716 722.118,790.05 717.5,793C 714.833,793.667 712.167,793.667 709.5,793C 685.286,787.114 661.286,780.614 637.5,773.5C 679.167,732.167 720.833,690.833 762.5,649.5C 763.086,649.709 763.586,650.043 764,650.5C 770.963,672.218 776.796,694.218 781.5,716.5 Z"/></g>
<g><path style="opacity:1" fill="#7f7f7f" d="M 781.5,716.5 C 782.924,718.515 783.59,720.848 783.5,723.5C 782.076,721.485 781.41,719.152 781.5,716.5 Z"/></g>
<g><path style="opacity:1" fill="#575757" d="M 803.5,727.5 C 804.924,729.515 805.59,731.848 805.5,734.5C 804.076,732.485 803.41,730.152 803.5,727.5 Z"/></g>
<g><path style="opacity:1" fill="#535353" d="M 807.5,742.5 C 808.924,744.515 809.59,746.848 809.5,749.5C 808.076,747.485 807.41,745.152 807.5,742.5 Z"/></g>
<g><path style="opacity:1" fill="#adadad" d="M 792.5,757.5 C 791.518,755.594 790.518,753.594 789.5,751.5C 788.583,752.127 787.583,752.461 786.5,752.5C 787.254,750.554 788.588,749.721 790.5,750C 791.867,752.301 792.534,754.801 792.5,757.5 Z"/></g>
<g><path style="opacity:1" fill="#f2f2f2" d="M 792.5,757.5 C 796.788,770.649 800.454,783.982 803.5,797.5C 803.41,800.152 804.076,802.485 805.5,804.5C 806.815,809.095 807.815,813.761 808.5,818.5C 804.738,818.309 801.071,817.642 797.5,816.5C 795.485,815.076 793.152,814.41 790.5,814.5C 776.513,810.843 762.513,807.176 748.5,803.5C 746.485,802.076 744.152,801.41 741.5,801.5C 739.897,801.688 738.563,801.188 737.5,800C 753.398,783.6 769.731,767.767 786.5,752.5C 787.583,752.461 788.583,752.127 789.5,751.5C 790.518,753.594 791.518,755.594 792.5,757.5 Z"/></g>
<g><path style="opacity:1" fill="#575757" d="M 816.5,776.5 C 817.924,778.515 818.59,780.848 818.5,783.5C 817.076,781.485 816.41,779.152 816.5,776.5 Z"/></g>
<g><path style="opacity:1" fill="#929292" d="M 741.5,801.5 C 744.152,801.41 746.485,802.076 748.5,803.5C 745.848,803.59 743.515,802.924 741.5,801.5 Z"/></g>
<g><path style="opacity:1" fill="#898989" d="M 803.5,797.5 C 804.924,799.515 805.59,801.848 805.5,804.5C 804.076,802.485 803.41,800.152 803.5,797.5 Z"/></g>
<g><path style="opacity:1" fill="#969696" d="M 790.5,814.5 C 793.152,814.41 795.485,815.076 797.5,816.5C 794.848,816.59 792.515,815.924 790.5,814.5 Z"/></g>
<g><path style="opacity:1" fill="#696969" d="M 825.5,812.5 C 826.924,814.515 827.59,816.848 827.5,819.5C 826.076,817.485 825.41,815.152 825.5,812.5 Z"/></g>
<g><path style="opacity:1" fill="#575757" d="M 805.5,836.5 C 808.152,836.41 810.485,837.076 812.5,838.5C 809.848,838.59 807.515,837.924 805.5,836.5 Z"/></g>
</svg>
